<svg width="12" height="12" viewBox="0 0 12 12" fill="none" xmlns="http://www.w3.org/2000/svg">
<path d="M10.4717 2.47862L1.52786 11.4133C1.39517 11.546 1.22838 11.6108 1.02752 11.6077C0.826634 11.6046 0.659852 11.5367 0.527171 11.4041C0.394474 11.2714 0.328125 11.1061 0.328125 10.9083C0.328125 10.7105 0.394474 10.5453 0.527171 10.4126L9.46181 1.4687H1.60712C1.40347 1.4687 1.23277 1.3998 1.09501 1.26199C0.957263 1.12417 0.888391 0.953391 0.888391 0.749665C0.888391 0.545923 0.957263 0.375253 1.09501 0.237652C1.23277 0.100052 1.40347 0.03125 1.60712 0.03125H11.043C11.2884 0.03125 11.4941 0.114259 11.6602 0.280274C11.8262 0.446289 11.9092 0.652003 11.9092 0.897416V10.3333C11.9092 10.537 11.8403 10.7077 11.7025 10.8454C11.5646 10.9832 11.3939 11.052 11.1901 11.052C10.9864 11.052 10.8157 10.9832 10.6781 10.8454C10.5405 10.7077 10.4717 10.537 10.4717 10.3333V2.47862Z" fill="#FC8452"/>
</svg>
