<svg width="12" height="12" viewBox="0 0 12 12" fill="none" xmlns="http://www.w3.org/2000/svg">
<path d="M10.4717 2.47865L1.52786 11.4133C1.39517 11.546 1.22838 11.6108 1.02752 11.6077C0.826634 11.6046 0.659852 11.5368 0.527171 11.4041C0.394474 11.2714 0.328125 11.1061 0.328125 10.9083C0.328125 10.7105 0.394474 10.5453 0.527171 10.4126L9.46181 1.46873H1.60712C1.40347 1.46873 1.23277 1.39983 1.09501 1.26202C0.957263 1.1242 0.888391 0.953421 0.888391 0.749696C0.888391 0.545954 0.957263 0.375283 1.09501 0.237683C1.23277 0.100082 1.40347 0.0312805 1.60712 0.0312805H11.043C11.2884 0.0312805 11.4941 0.114289 11.6602 0.280304C11.8262 0.44632 11.9092 0.652033 11.9092 0.897447V10.3333C11.9092 10.537 11.8403 10.7077 11.7025 10.8454C11.5646 10.9832 11.3939 11.0521 11.1901 11.0521C10.9864 11.0521 10.8157 10.9832 10.6781 10.8454C10.5405 10.7077 10.4717 10.537 10.4717 10.3333V2.47865Z" fill="#2597D8"/>
</svg>
