<svg width="23" height="23" viewBox="0 0 23 23" fill="none" xmlns="http://www.w3.org/2000/svg">
<path d="M15.4717 7.47862L6.52786 16.4133C6.39517 16.546 6.22838 16.6108 6.02752 16.6077C5.82663 16.6046 5.65985 16.5367 5.52717 16.4041C5.39447 16.2714 5.32812 16.1061 5.32812 15.9083C5.32812 15.7105 5.39447 15.5453 5.52717 15.4126L14.4618 6.4687H6.60712C6.40347 6.4687 6.23277 6.3998 6.09501 6.26199C5.95726 6.12417 5.88839 5.95339 5.88839 5.74967C5.88839 5.54592 5.95726 5.37525 6.09501 5.23765C6.23277 5.10005 6.40347 5.03125 6.60712 5.03125H16.043C16.2884 5.03125 16.4941 5.11426 16.6602 5.28027C16.8262 5.44629 16.9092 5.652 16.9092 5.89742V15.3333C16.9092 15.537 16.8403 15.7077 16.7025 15.8454C16.5646 15.9832 16.3939 16.052 16.1901 16.052C15.9864 16.052 15.8157 15.9832 15.6781 15.8454C15.5405 15.7077 15.4717 15.537 15.4717 15.3333V7.47862Z" fill="#9A60B4"/>
</svg>
